<svg xmlns="http://www.w3.org/2000/svg" xmlns:xlink="http://www.w3.org/1999/xlink" viewBox="0 0 100 125" version="1.1" x="0px" y="0px"><title>site Review Copy 2</title><desc>Created with Sketch.</desc><g stroke="none" stroke-width="1" fill="none" fill-rule="evenodd"><path d="M48.5277931,79.4253626 C48.3591355,79.1486437 48.1637111,78.826023 47.943746,78.4604951 C47.316081,77.4174702 46.6170184,76.2388294 45.864357,74.9485024 C43.7138925,71.2618479 41.5633392,67.4166788 39.5547327,63.6034446 C38.5635287,61.7216958 37.6301684,59.8908467 36.7644085,58.1238507 C32.6103369,49.6454868 30.25,43.1880989 30.25,39.263749 C30.25,28.3485318 39.0985318,19.5 50.013749,19.5 C60.9289662,19.5 69.777498,28.3485318 69.777498,39.263749 C69.777498,44.0231522 66.3087343,52.5241636 60.4727654,63.6034446 C58.4641588,67.4166788 56.3136055,71.2618479 54.163141,74.9485024 C53.4104797,76.2388294 52.7114171,77.4174702 52.083752,78.4604951 C51.8637869,78.826023 51.6683625,79.1486437 51.4997049,79.4253626 C51.398052,79.5921461 51.3276259,79.707026 51.2906535,79.7670065 C50.7047323,80.7175496 49.3227658,80.7175496 48.7368445,79.7670065 C48.6998721,79.707026 48.6294461,79.5921461 48.5277931,79.4253626 Z M50.013749,48.59107 C54.4446012,48.59107 58.0365165,44.9991547 58.0365165,40.5683025 C58.0365165,36.1374504 54.4446012,32.545535 50.013749,32.545535 C45.5828969,32.545535 41.9909815,36.1374504 41.9909815,40.5683025 C41.9909815,44.9991547 45.5828969,48.59107 50.013749,48.59107 Z" fill="#199A09" fill-rule="nonzero"/></g><text x="0" y="115" fill="#199A09" font-size="5px" font-weight="bold" font-family="'Helvetica Neue', Helvetica, Arial-Unicode, Arial, Sans-serif"></text><text x="0" y="120" fill="#000000" font-size="5px" font-weight="bold" font-family="'Helvetica Neue', Helvetica, Arial-Unicode, Arial, Sans-serif"></text></svg>
