<svg xmlns:dc="http://purl.org/dc/elements/1.1/" xmlns:cc="http://creativecommons.org/ns#" xmlns:rdf="http://www.w3.org/1999/02/22-rdf-syntax-ns#" xmlns:svg="http://www.w3.org/2000/svg" xmlns="http://www.w3.org/2000/svg" xmlns:sodipodi="http://sodipodi.sourceforge.net/DTD/sodipodi-0.dtd" xmlns:inkscape="http://www.inkscape.org/namespaces/inkscape" version="1.1" x="0px" y="0px" viewBox="0 0 100 125"><g transform="translate(0,-952.36218)"><path style="text-indent:0;text-transform:none;direction:ltr;block-progression:tb;baseline-shift:baseline;color:#000000;enable-background:accumulate;" d="m 50.3909,980.17332 c -0.6437,0 -1.125,0.5584 -1.125,1.1874 0,0.4373 0.2645,0.7631 0.625,0.9688 l 0,0.1562 -6.0626,0 -0.031,0 c -1.1379,0.036 -2.1734,0.6546 -3.0938,1.5313 -0.9203,0.8767 -1.73,2.0294 -2.4062,3.3125 -1.3524,2.5661 -2.2054,5.583 -2.0625,7.7188 l 0.031,0.4374 0.4687,0 24.375,0 0,-1 -10.6563,0 0,-0.4062 6.875,0 0,-0.5 0,-0.5 0,-0.031 0,-0.4688 0,-0.5312 -6.875,0 0,-0.875 c 0,-0.6356 -0.1675,-1.2084 -0.5,-1.6563 -0.3324,-0.4479 -0.8588,-0.7813 -1.4374,-0.7813 -0.5787,0 -1.0739,0.3334 -1.4063,0.7813 -0.3324,0.4479 -0.5313,1.0207 -0.5313,1.6563 l 0,0.875 -8.9687,0 c 0.1808,-0.7738 0.5023,-1.5074 0.8125,-2.3126 l 6.2812,0 0.5,0 0,-0.5 0,-5.75 15,0 1.0938,0 0,-1 -1.0938,0 -9.3124,0 0,-0.1562 c 0.3604,-0.2057 0.625,-0.5316 0.625,-0.9688 0,-0.6288 -0.4814,-1.1874 -1.125,-1.1874 z m 0,1 c 0.056,0 0.125,0.055 0.125,0.1874 0,0.1322 -0.07,0.1876 -0.125,0.1876 -0.055,0 -0.125,-0.056 -0.125,-0.1876 0,-0.1319 0.069,-0.1874 0.125,-0.1874 z m -6.5626,2.3124 0.375,0 0,5.25 -5.4062,0 c 0.1412,-0.3113 0.2176,-0.6388 0.375,-0.9374 0.6387,-1.212 1.4092,-2.2914 2.2188,-3.0626 0.8095,-0.7711 1.6361,-1.225 2.4374,-1.25 z m 10.3438,1.2813 0,0.5 0,2.8437 0,0.5 0.5,0 2.2188,0 0.5,0 0,-0.5 0,-2.8437 0,-0.5 -0.5,0 -2.2188,0 -0.5,0 z m -7.5625,0.031 0,0.5 0,2.8437 0,0.5 0.5,0 2.2187,0 0.5,0 0,-0.5 0,-2.8437 0,-0.5 -0.5,0 -2.2187,0 -0.5,0 z m 3.7813,0 0,0.5 0,2.8437 0,0.5 0.5,0 2.2187,0 0.5,0 0,-0.5 0,-2.8437 0,-0.5 -0.5,0 -2.2187,0 -0.5,0 z m 7.5624,0 0,0.5 0,2.8437 0,0.5 0.5,0 1.5,0 0,-1 -1,0 0,-1.8437 0.75,0 0.25,0 0,-1 -0.25,0 -1.25,0 -0.5,0 z m 2.5313,0.062 0,1 1.2187,0 0,-1 -1.2187,0 z m -5.3125,0.9063 1.2188,0 0,1.8437 -1.2188,0 0,-1.8437 z m -7.5625,0.031 1.2187,0 0,1.8437 -1.2187,0 0,-1.8437 z m 3.7813,0 1.2187,0 0,1.8437 -1.2187,0 0,-1.8437 z m 9.4687,1.8124 0,1 1.9687,0 0,-1 -1.9687,0 z m -12.3437,2.125 c 0.2169,0 0.4382,0.1234 0.625,0.375 0.1867,0.2517 0.3124,0.6262 0.3124,1.0626 l 0,2.8124 0,0.5 -1.875,0 0,-0.3124 0,-3 c 0,-0.4364 0.1571,-0.8109 0.3438,-1.0626 0.1867,-0.2516 0.3767,-0.375 0.5938,-0.375 z m 13.75,2.2813 0,0.5 0,0.5 0,0.5 1.0312,0 0,-0.5 0,-0.5 0,-0.5 -1.0312,0 z m -2.5313,0.062 0,0.5312 0,0.4688 0,0.5312 1.9375,0 0,-0.5312 0,-0.4688 0,-0.5312 -1.9375,0 z m -22.375,2 9.2187,0 0,0.094 0,0.3124 -9.2812,0 c 10e-5,-0.1189 0.056,-0.28 0.062,-0.4062 z m 12.6464,-26.0011 c -10.9006,0 -19.7523,8.8517 -19.7523,19.7522 0,10.9005 8.8517,19.75218 19.7523,19.75218 10.9005,0 19.7522,-8.85168 19.7522,-19.75218 0,-10.9005 -8.8517,-19.7522 -19.7522,-19.7522 z m 0,2.3594 c 9.6146,0 17.3928,7.7782 17.3928,17.3928 0,9.6146 -7.7782,17.39278 -17.3928,17.39278 -9.6147,0 -17.3929,-7.77818 -17.3929,-17.39278 0,-9.6146 7.7782,-17.3928 17.3929,-17.3928 z m 0.01,-12.0756 c -16.3545,0 -29.6563,13.3019 -29.6563,29.6563 0,5.287 1.4467,10.2026 3.875,14.49998 a 1.1898072,1.1898072 0 0 0 0.031,0.094 1.1898072,1.1898072 0 0 0 0.125,0.3126 l 24.75,42.8438 a 1.1898072,1.1898072 0 0 0 2.0624,0 l 24.4376,-42.9064 0.031,-0.062 c 0.01,-0.012 0.024,-0.02 0.031,-0.031 a 1.1898072,1.1898072 0 0 0 0.125,-0.3437 c 2.3938,-4.27438 3.8126,-9.15968 3.8126,-14.40628 0,-16.2465 -13.1056,-29.4525 -29.3126,-29.625 a 1.1898072,1.1898072 0 0 0 -0.2187,-0.031 1.1898072,1.1898072 0 0 0 -0.094,0 z m -0.094,2.375 a 1.1898072,1.1898072 0 0 0 0.094,0 c 15.0673,0 27.25,12.213 27.25,27.2813 0,4.939 -1.3295,9.5361 -3.625,13.53128 -0.012,0.02 -0.02,0.042 -0.031,0.062 a 1.1898072,1.1898072 0 0 0 -0.062,0.125 l -23.375,41.0627 -23.5938,-40.7814 a 1.1898072,1.1898072 0 0 0 0,-0.031 l -0.031,-0.062 a 1.1898072,1.1898072 0 0 0 -0.094,-0.1876 c -2.3615,-4.03688 -3.7187,-8.70318 -3.7187,-13.71868 0,-15.0354 12.1641,-27.2299 27.1875,-27.2813 z" fill="#000000" fill-opacity="1" stroke="none" marker="none" visibility="visible" display="inline" overflow="visible"/></g><text x="0" y="115" fill="#000000" font-size="5px" font-weight="bold" font-family="'Helvetica Neue', Helvetica, Arial-Unicode, Arial, Sans-serif">Created by Artdabana@Design</text><text x="0" y="120" fill="#000000" font-size="5px" font-weight="bold" font-family="'Helvetica Neue', Helvetica, Arial-Unicode, Arial, Sans-serif">from the Noun Project</text></svg>