<svg xmlns:dc="http://purl.org/dc/elements/1.1/" xmlns:cc="http://creativecommons.org/ns#" xmlns:rdf="http://www.w3.org/1999/02/22-rdf-syntax-ns#" xmlns:svg="http://www.w3.org/2000/svg" xmlns="http://www.w3.org/2000/svg" xmlns:sodipodi="http://sodipodi.sourceforge.net/DTD/sodipodi-0.dtd" xmlns:inkscape="http://www.inkscape.org/namespaces/inkscape" version="1.1" x="0px" y="0px" viewBox="0 0 100 125"><g transform="translate(0,-952.36209)"><path style="text-indent:0;text-transform:none;direction:ltr;block-progression:tb;baseline-shift:baseline;color:#199aca;enable-background:accumulate;background-color:#199aca" d="m 50.01595,958.3607 c -16.3545,0 -29.6562,13.3019 -29.6562,29.6562 0,5.2871 1.4466,10.2027 3.875,14.5 a 1.1898072,1.1898072 0 0 0 0.031,0.094 1.1898072,1.1898072 0 0 0 0.125,0.3125 l 24.75,42.8437 a 1.1898072,1.1898072 0 0 0 2.0625,0 l 24.4375,-42.9062 0.031,-0.062 c 0.01,-0.012 0.024,-0.02 0.031,-0.031 a 1.1898072,1.1898072 0 0 0 0.125,-0.3437 c 2.3938,-4.2744 3.8125,-9.1597 3.8125,-14.4063 0,-16.2464 -13.1055,-29.4524 -29.3125,-29.625 a 1.1898072,1.1898072 0 0 0 -0.2187,-0.031 1.1898072,1.1898072 0 0 0 -0.094,0 z m -1.0312,9.125 c 0.3364,-0.017 0.6906,0 1.0312,0 10.9005,0 19.75,8.8495 19.75,19.75 0,10.9005 -8.8495,19.75 -19.75,19.75 -10.9006,0 -19.75,-8.8495 -19.75,-19.75 0,-10.5599 8.2895,-19.2188 18.7188,-19.75 z m 1.1874,12.125 c -0.5234,0.1154 -0.9062,0.6059 -0.9062,1.1562 0,0.4375 0.2645,0.7631 0.625,0.9688 l 0,0.1562 -6.0625,0 -0.031,0 c -1.1378,0.036 -2.1733,0.6546 -3.0937,1.5313 -0.9203,0.8767 -1.73,2.0294 -2.4063,3.3125 -1.3523,2.5661 -2.2054,5.6141 -2.0624,7.75 l 0.031,0.4062 0.4688,0 24.375,0 0,-1 -10.6563,0 0,-0.4062 6.875,0 0,-0.5 0,-0.5 0,-0.5 0,-0.5 -6.875,0 0,-0.875 c 0,-0.6356 -0.1676,-1.2396 -0.5,-1.6875 -0.3325,-0.4479 -0.8588,-0.7813 -1.4375,-0.7813 -0.5787,0 -1.0738,0.3334 -1.4062,0.7813 -0.3325,0.4479 -0.5313,1.0519 -0.5313,1.6875 l 0,0.875 -8.9687,0 c 0.1808,-0.7739 0.5023,-1.5385 0.8124,-2.3438 l 6.2813,0 0.5,0 0,-0.5 0,-5.75 15,0 1.0937,0 0,-1 -1.0937,0 -9.3125,0 0,-0.1562 c 0.3605,-0.2057 0.625,-0.5315 0.625,-0.9688 0,-0.6286 -0.4813,-1.1562 -1.125,-1.1562 -0.08,0 -0.1437,-0.017 -0.2188,0 z m 0.2188,1 c 0.056,0 0.125,0.024 0.125,0.1562 0,0.1323 -0.07,0.2188 -0.125,0.2188 -0.055,0 -0.125,-0.087 -0.125,-0.2188 0,-0.1319 0.069,-0.1562 0.125,-0.1562 z m -6.5625,2.2812 0.375,0 0,5.25 -5.4063,0 c 0.1413,-0.3113 0.2176,-0.6076 0.375,-0.9062 0.6387,-1.212 1.4092,-2.3226 2.2188,-3.0938 0.8096,-0.7711 1.6361,-1.225 2.4375,-1.25 z m 10.3437,1.2813 0,0.5 0,2.8437 0,0.5 0.5,0 2.2188,0 0.5,0 0,-0.5 0,-2.8437 0,-0.5 -0.5,0 -2.2188,0 -0.5,0 z m -7.5624,0.062 0,0.5 0,2.8125 0,0.5 0.5,0 2.2187,0 0.5,0 0,-0.5 0,-2.8125 0,-0.5 -0.5,0 -2.2187,0 -0.5,0 z m 3.7812,0 0,0.5 0,2.8125 0,0.5 0.5,0 2.2188,0 0.5,0 0,-0.5 0,-2.8125 0,-0.5 -0.5,0 -2.2188,0 -0.5,0 z m 7.5625,0 0,0.5 0,2.8125 0,0.5 0.5,0 1.5,0 0,-1 -1,0 0,-1.8125 0.75,0 0.25,0 0,-1 -0.25,0 -1.25,0 -0.5,0 z m 2.5313,0.031 0,1 1.2187,0 0,-1 -1.2187,0 z m -12.875,0.9063 1.2187,0 0,1.8437 -1.2187,0 0,-1.8437 z m 3.7812,0 1.2188,0 0,1.8437 -1.2188,0 0,-1.8437 z m 3.7812,0 1.2188,0 0,1.8437 -1.2188,0 0,-1.8437 z m 5.6876,1.8125 0,1 1.9687,0 0,-1 -1.9687,0 z m -12.3438,2.125 c 0.2169,0 0.4383,0.1234 0.625,0.375 0.1867,0.2517 0.3125,0.6261 0.3125,1.0625 l 0,2.8125 0,0.5 -1.875,0 0,-0.3125 0,-3 c 0,-0.4364 0.1571,-0.8108 0.3437,-1.0625 0.1867,-0.2516 0.3767,-0.375 0.5938,-0.375 z m 13.75,2.2812 0,0.5 0,0.5 0,0.5 1.0312,0 0,-0.5 0,-0.5 0,-0.5 -1.0312,0 z m -2.5312,0.094 0,0.5 0,0.5 0,0.5 1.9374,0 0,-0.5 0,-0.5 0,-0.5 -1.9374,0 z m -22.375,2 9.2187,0 0,0.062 0,0.3125 -9.2813,0 c 0,-0.1189 0.053,-0.2489 0.063,-0.375 z" fill="#199aca" fill-opacity="1" stroke="none" marker="none" visibility="visible" display="inline" overflow="visible"/></g><text x="0" y="115" fill="#000000" font-size="5px" font-weight="bold" font-family="'Helvetica Neue', Helvetica, Arial-Unicode, Arial, Sans-serif">Created by Artdabana@Design</text><text x="0" y="120" fill="#000000" font-size="5px" font-weight="bold" font-family="'Helvetica Neue', Helvetica, Arial-Unicode, Arial, Sans-serif">from the Noun Project</text></svg>
